<svg xmlns="http://www.w3.org/2000/svg" width="45" height="45" viewBox="0 0 45 45" version="1.1"><path d="M 5.729 16.250 C -0.449 20.921, 3.989 31.475, 11.353 29.626 C 15.098 28.686, 17 26.262, 17 22.429 C 17 16.396, 10.354 12.753, 5.729 16.250" stroke="none" fill="#010100" fill-rule="evenodd"/><path d="M 16.882 4.882 C 14.747 7.018, 13 9.266, 13 9.879 C 13 12.076, 20.212 19, 22.500 19 C 24.721 19, 32 12.104, 32 10 C 32 8.074, 24.742 1, 22.766 1 C 21.665 1, 19.018 2.747, 16.882 4.882 M 16.616 30.003 C 14.627 32.204, 13 34.453, 13 35 C 13 36.926, 20.258 44, 22.234 44 C 24.338 44, 32 37.034, 32 35.121 C 32 32.924, 24.788 26, 22.500 26 C 21.124 26, 18.812 27.573, 16.616 30.003" stroke="none" fill="#d76578" fill-rule="evenodd"/><path d="M 30.003 16.616 C 27.801 18.605, 26 21.133, 26 22.234 C 26 24.338, 32.966 32, 34.879 32 C 37.076 32, 44 24.788, 44 22.500 C 44 20.279, 37.104 13, 35 13 C 34.453 13, 32.204 14.627, 30.003 16.616" stroke="none" fill="#f8b1b8" fill-rule="evenodd"/></svg>